<svg width="1600" height="980" viewBox="0 0 1600 980" fill="none" xmlns="http://www.w3.org/2000/svg">
  <rect width="1600" height="980" fill="#D9D0C4"/>
  <rect width="1600" height="980" fill="url(#paint0_linear_1_2)"/>
  <g opacity="0.8">
    <path d="M0 0H620L498 980H0V0Z" fill="url(#paint1_linear_1_2)"/>
    <path d="M1600 0H1040L1132 980H1600V0Z" fill="url(#paint2_linear_1_2)"/>
  </g>
  <rect x="102" y="86" width="1396" height="694" rx="28" fill="#F5EFE6"/>
  <rect x="102" y="86" width="1396" height="694" rx="28" stroke="#E3D8C8" stroke-width="8"/>
  <path d="M136 118H1464V744H136V118Z" fill="url(#paint3_linear_1_2)"/>
  <path d="M102 780H1498V980H102V780Z" fill="url(#paint4_linear_1_2)"/>
  <path d="M136 744H1464V780H136V744Z" fill="#B79876"/>
  <g opacity="0.88">
    <rect x="180" y="170" width="286" height="510" rx="18" fill="#D8C5AF"/>
    <rect x="205" y="198" width="236" height="454" rx="10" fill="#F8F2EA"/>
    <rect x="205" y="198" width="236" height="20" fill="#E7DACB"/>
    <rect x="205" y="344" width="236" height="14" rx="7" fill="#C4A484"/>
    <rect x="205" y="504" width="236" height="14" rx="7" fill="#C4A484"/>
    <rect x="232" y="258" width="182" height="8" rx="4" fill="#A57A55"/>
    <path d="M250 266V400" stroke="#A57A55" stroke-width="8" stroke-linecap="round"/>
    <path d="M396 266V400" stroke="#A57A55" stroke-width="8" stroke-linecap="round"/>
    <path d="M252 401C274 368 301 356 322 356C343 356 369 369 392 401V460H252V401Z" fill="#BC8C64"/>
    <path d="M274 401C291 381 307 374 322 374C337 374 353 382 370 401V460H274V401Z" fill="#D5A77C"/>
    <rect x="236" y="540" width="174" height="86" rx="10" fill="#E9DED1"/>
    <rect x="246" y="552" width="154" height="26" rx="8" fill="#D6C1A8"/>
    <rect x="246" y="588" width="154" height="26" rx="8" fill="#D6C1A8"/>
  </g>
  <g opacity="0.92">
    <rect x="520" y="146" width="560" height="550" rx="22" fill="#D4B89A"/>
    <rect x="552" y="178" width="496" height="486" rx="14" fill="#FBF7F2"/>
    <rect x="552" y="178" width="496" height="24" fill="#E7DBCE"/>
    <rect x="584" y="234" width="432" height="10" rx="5" fill="#A97E57"/>
    <path d="M610 244V414" stroke="#A97E57" stroke-width="8" stroke-linecap="round"/>
    <path d="M990 244V414" stroke="#A97E57" stroke-width="8" stroke-linecap="round"/>
    <path d="M632 414C661 371 706 346 754 346C802 346 848 372 876 414V494H632V414Z" fill="#B57B5B"/>
    <path d="M722 414C739 390 754 382 772 382C790 382 806 390 824 414V494H722V414Z" fill="#E8C6A7"/>
    <rect x="602" y="524" width="396" height="20" rx="10" fill="#C6A07B"/>
    <rect x="602" y="562" width="396" height="20" rx="10" fill="#C6A07B"/>
    <rect x="620" y="594" width="116" height="46" rx="12" fill="#E4D4C2"/>
    <rect x="742" y="594" width="116" height="46" rx="12" fill="#E4D4C2"/>
    <rect x="864" y="594" width="116" height="46" rx="12" fill="#E4D4C2"/>
  </g>
  <g opacity="0.86">
    <rect x="1132" y="170" width="286" height="510" rx="18" fill="#D8C5AF"/>
    <rect x="1158" y="198" width="234" height="454" rx="10" fill="#F8F2EA"/>
    <rect x="1158" y="198" width="234" height="20" fill="#E7DACB"/>
    <rect x="1158" y="270" width="234" height="14" rx="7" fill="#C4A484"/>
    <rect x="1158" y="438" width="234" height="14" rx="7" fill="#C4A484"/>
    <rect x="1184" y="310" width="182" height="102" rx="12" fill="#EFE5D8"/>
    <path d="M1196 348H1354" stroke="#B28A69" stroke-width="8" stroke-linecap="round"/>
    <circle cx="1224" cy="336" r="14" fill="#D6B491"/>
    <circle cx="1326" cy="336" r="14" fill="#D6B491"/>
    <rect x="1184" y="482" width="182" height="144" rx="12" fill="#EEE0D0"/>
    <rect x="1200" y="500" width="150" height="24" rx="8" fill="#D3B498"/>
    <rect x="1200" y="536" width="150" height="24" rx="8" fill="#D3B498"/>
    <rect x="1200" y="572" width="150" height="24" rx="8" fill="#D3B498"/>
  </g>
  <g opacity="0.85">
    <rect x="650" y="770" width="300" height="118" rx="32" fill="#D1B08E"/>
    <rect x="674" y="792" width="252" height="74" rx="22" fill="#EFE5DA"/>
    <rect x="708" y="812" width="80" height="14" rx="7" fill="#CAA17C"/>
    <rect x="812" y="812" width="80" height="14" rx="7" fill="#CAA17C"/>
  </g>
  <path d="M138 118L468 744H138V118Z" fill="url(#paint5_linear_1_2)" opacity="0.32"/>
  <path d="M1462 118L1182 744H1462V118Z" fill="url(#paint6_linear_1_2)" opacity="0.24"/>
  <defs>
    <linearGradient id="paint0_linear_1_2" x1="800" y1="0" x2="800" y2="980" gradientUnits="userSpaceOnUse">
      <stop stop-color="#EBE1D4"/>
      <stop offset="1" stop-color="#CDBAA1"/>
    </linearGradient>
    <linearGradient id="paint1_linear_1_2" x1="310" y1="0" x2="310" y2="980" gradientUnits="userSpaceOnUse">
      <stop stop-color="#F8F0E7"/>
      <stop offset="1" stop-color="#D8C3A9"/>
    </linearGradient>
    <linearGradient id="paint2_linear_1_2" x1="1320" y1="0" x2="1320" y2="980" gradientUnits="userSpaceOnUse">
      <stop stop-color="#F2E7DA"/>
      <stop offset="1" stop-color="#D1BAA0"/>
    </linearGradient>
    <linearGradient id="paint3_linear_1_2" x1="800" y1="118" x2="800" y2="744" gradientUnits="userSpaceOnUse">
      <stop stop-color="#FCF8F3"/>
      <stop offset="1" stop-color="#F0E6DB"/>
    </linearGradient>
    <linearGradient id="paint4_linear_1_2" x1="800" y1="780" x2="800" y2="980" gradientUnits="userSpaceOnUse">
      <stop stop-color="#C7AA88"/>
      <stop offset="1" stop-color="#A88663"/>
    </linearGradient>
    <linearGradient id="paint5_linear_1_2" x1="303" y1="118" x2="303" y2="744" gradientUnits="userSpaceOnUse">
      <stop stop-color="white"/>
      <stop offset="1" stop-color="white" stop-opacity="0"/>
    </linearGradient>
    <linearGradient id="paint6_linear_1_2" x1="1322" y1="118" x2="1322" y2="744" gradientUnits="userSpaceOnUse">
      <stop stop-color="white"/>
      <stop offset="1" stop-color="white" stop-opacity="0"/>
    </linearGradient>
  </defs>
</svg>
